<svg width="1080" height="1080" viewBox="0 0 1080 1080" fill="none" xmlns="http://www.w3.org/2000/svg">
<circle cx="540" cy="540" r="475" fill="[DARK_COLOR]"/>
<circle cx="540" cy="540" r="423" fill="[LIGHT_COLOR]"/>
<path d="M344.167 337.9H281.667C277.248 337.9 273.667 341.482 273.667 345.9V401.183C273.667 405.602 277.248 409.183 281.667 409.183H451.483C460.403 409.183 469.399 410.213 477.555 412.259C482.128 413.406 486.99 410.904 488.469 406.427C493.779 390.354 501.497 376.053 511.621 363.951C515.046 359.856 514.171 353.502 509.328 351.257C490.871 342.702 470.663 337.9 451.483 337.9H344.167Z" fill="[DARK_COLOR]"/>
<path d="M576.817 440.517V496.133C576.817 549.051 530.806 582.38 480.467 591.308L590.899 731.5C595.032 736.747 591.294 744.45 584.614 744.45H525.167C522.667 744.45 520.312 743.282 518.799 741.292L406.833 594.05H352.167C347.748 594.05 344.167 597.632 344.167 602.05V736.45C344.167 740.868 340.585 744.45 336.167 744.45H281.667C277.248 744.45 273.667 740.868 273.667 736.45V538.6C273.667 534.182 277.248 530.6 281.667 530.6H451.483C480.075 530.6 509.45 519.242 509.45 496.133V441.243C509.45 440.76 509.494 440.273 509.583 439.797C514.253 414.644 520.961 397.194 539.441 379.326C542.361 376.502 546.989 376.549 549.826 379.456C566.224 396.265 576.817 417.221 576.817 440.517Z" fill="[DARK_COLOR]"/>
<path d="M509.45 452.267C509.45 303.048 786.631 300.35 796.655 444.172C796.962 448.58 793.352 452.267 788.933 452.267H741.483C737.065 452.267 733.583 448.632 732.459 444.359C728.025 427.511 708.158 409.183 652.8 409.183C605.128 409.183 578.633 429.587 577.366 452.267C577.366 490.425 580.265 515.77 563.707 541.442C561.458 544.928 556.775 545.761 553.412 543.333C528.721 525.512 509.45 497.169 509.45 452.267Z" fill="[DARK_COLOR]"/>
<path d="M652.8 673.95C741.317 673.95 777.35 572.9 652.8 572.9C642.653 572.9 620.561 571.468 596.69 564.173C591.365 562.545 589.676 555.961 592.701 551.287C600.479 539.269 606.072 524.226 608.099 508.135C608.851 502.16 615.39 498.196 621.006 500.372C640.261 507.834 666.113 512.583 699.017 512.583C835.124 512.583 836.093 741.16 656.687 744.415C654.285 744.458 651.919 743.37 650.399 741.51L607.558 689.042C602.064 682.313 610.991 670.041 619.551 671.522C629.392 673.224 640.152 673.95 652.8 673.95Z" fill="[DARK_COLOR]"/>
</svg>
